HIERARCHY
ROOT Hips
{
	OFFSET -14.64140 90.27770 -84.91600
	CHANNELS 6 Xposition Yposition Zposition Zrotation Xrotation Yrotation
	JOINT Spine
	{
		OFFSET 0.00000 13.20850 -1.60436
		CHANNELS 3 Zrotation Xrotation Yrotation
		JOINT Spine1
		{
			OFFSET 0.00000 8.61716 0.00000
			CHANNELS 3 Zrotation Xrotation Yrotation
			JOINT Spine2
			{
				OFFSET 0.00000 8.61717 0.00000
				CHANNELS 3 Zrotation Xrotation Yrotation
				JOINT Spine3
				{
					OFFSET 0.00000 8.61717 0.00000
					CHANNELS 3 Zrotation Xrotation Yrotation
					JOINT Neck
					{
						OFFSET 0.00000 11.07920 1.10792
						CHANNELS 3 Zrotation Xrotation Yrotation
						JOINT Neck1
						{
							OFFSET 0.00000 7.08032 0.00000
							CHANNELS 3 Zrotation Xrotation Yrotation
							JOINT Head
							{
								OFFSET 0.00000 7.08031 0.00000
								CHANNELS 3 Zrotation Xrotation Yrotation
								End site
								{
									OFFSET 0.00000 0.00000 0.00000
								}
							}
						}
					}
					JOINT RightShoulder
					{
						OFFSET -0.01000 7.91373 5.19711
						CHANNELS 3 Zrotation Xrotation Yrotation
						JOINT RightArm
						{
							OFFSET -18.41580 0.00000 0.00000
							CHANNELS 3 Zrotation Xrotation Yrotation
							JOINT RightForeArm
							{
								OFFSET -29.11090 0.00000 0.00000
								CHANNELS 3 Zrotation Xrotation Yrotation
								JOINT RightHand
								{
									OFFSET -24.65040 0.00000 0.00000
									CHANNELS 3 Zrotation Xrotation Yrotation
									JOINT RightHandThumb1
									{
										OFFSET -5.35114 -0.85590 3.97906
										CHANNELS 3 Zrotation Xrotation Yrotation
										JOINT RightHandThumb2
										{
											OFFSET -4.52789 0.00000 0.00000
											CHANNELS 3 Zrotation Xrotation Yrotation
											JOINT RightHandThumb3
											{
												OFFSET -2.46976 0.00000 0.00000
												CHANNELS 3 Zrotation Xrotation Yrotation
												End site
												{
													OFFSET 0.00000 0.00000 0.00000
												}
											}
										}
									}
									JOINT RightHandIndex1
									{
										OFFSET -14.26970 0.00000 2.88139
										CHANNELS 3 Zrotation Xrotation Yrotation
										JOINT RightHandIndex2
										{
											OFFSET -5.48836 0.00000 0.00000
											CHANNELS 3 Zrotation Xrotation Yrotation
											JOINT RightHandIndex3
											{
												OFFSET -3.01859 0.00000 0.00000
												CHANNELS 3 Zrotation Xrotation Yrotation
												End site
												{
													OFFSET 0.00000 0.00000 0.00000
												}
											}
										}
									}
									JOINT RightHandMiddle1
									{
										OFFSET -14.26970 0.00000 -0.09147
										CHANNELS 3 Zrotation Xrotation Yrotation
										JOINT RightHandMiddle2
										{
											OFFSET -6.17441 0.00000 0.00000
											CHANNELS 3 Zrotation Xrotation Yrotation
											JOINT RightHandMiddle3
											{
												OFFSET -3.56743 0.00000 0.00000
												CHANNELS 3 Zrotation Xrotation Yrotation
												End site
												{
													OFFSET 0.00000 0.00000 0.00000
												}
											}
										}
									}
									JOINT RightHandRing1
									{
										OFFSET -12.69180 0.00000 -3.06433
										CHANNELS 3 Zrotation Xrotation Yrotation
										JOINT RightHandRing2
										{
											OFFSET -5.62556 0.00000 0.00000
											CHANNELS 3 Zrotation Xrotation Yrotation
											JOINT RightHandRing3
											{
												OFFSET -3.56744 0.00000 0.00000
												CHANNELS 3 Zrotation Xrotation Yrotation
												End site
												{
													OFFSET 0.00000 0.00000 0.00000
												}
											}
										}
									}
									JOINT RightHandPinky1
									{
										OFFSET -11.11390 0.00000 -6.03719
										CHANNELS 3 Zrotation Xrotation Yrotation
										JOINT RightHandPinky2
										{
											OFFSET -4.52789 0.00000 0.00000
											CHANNELS 3 Zrotation Xrotation Yrotation
											JOINT RightHandPinky3
											{
												OFFSET -2.46976 0.00000 0.00000
												CHANNELS 3 Zrotation Xrotation Yrotation
												End site
												{
													OFFSET 0.00000 0.00000 0.00000
												}
											}
										}
									}
								}
							}
						}
					}
					JOINT LeftShoulder
					{
						OFFSET 0.01000 7.91373 5.19711
						CHANNELS 3 Zrotation Xrotation Yrotation
						JOINT LeftArm
						{
							OFFSET 18.41580 0.00000 0.00000
							CHANNELS 3 Zrotation Xrotation Yrotation
							JOINT LeftForeArm
							{
								OFFSET 29.11090 0.00000 0.00000
								CHANNELS 3 Zrotation Xrotation Yrotation
								JOINT LeftHand
								{
									OFFSET 24.65040 0.00000 0.00000
									CHANNELS 3 Zrotation Xrotation Yrotation
									JOINT LeftHandThumb1
									{
										OFFSET 5.35114 -0.85590 3.97906
										CHANNELS 3 Zrotation Xrotation Yrotation
										JOINT LeftHandThumb2
										{
											OFFSET 4.52789 0.00000 0.00000
											CHANNELS 3 Zrotation Xrotation Yrotation
											JOINT LeftHandThumb3
											{
												OFFSET 2.46977 0.00000 0.00000
												CHANNELS 3 Zrotation Xrotation Yrotation
												End site
												{
													OFFSET 0.00000 0.00000 0.00000
												}
											}
										}
									}
									JOINT LeftHandIndex1
									{
										OFFSET 14.26970 0.00000 2.88139
										CHANNELS 3 Zrotation Xrotation Yrotation
										JOINT LeftHandIndex2
										{
											OFFSET 5.48836 0.00000 0.00000
											CHANNELS 3 Zrotation Xrotation Yrotation
											JOINT LeftHandIndex3
											{
												OFFSET 3.01859 0.00000 0.00000
												CHANNELS 3 Zrotation Xrotation Yrotation
												End site
												{
													OFFSET 0.00000 0.00000 0.00000
												}
											}
										}
									}
									JOINT LeftHandMiddle1
									{
										OFFSET 14.26970 0.00000 -0.09147
										CHANNELS 3 Zrotation Xrotation Yrotation
										JOINT LeftHandMiddle2
										{
											OFFSET 6.17440 0.00000 0.00000
											CHANNELS 3 Zrotation Xrotation Yrotation
											JOINT LeftHandMiddle3
											{
												OFFSET 3.56744 0.00000 0.00000
												CHANNELS 3 Zrotation Xrotation Yrotation
												End site
												{
													OFFSET 0.00000 0.00000 0.00000
												}
											}
										}
									}
									JOINT LeftHandRing1
									{
										OFFSET 12.69180 0.00000 -3.06433
										CHANNELS 3 Zrotation Xrotation Yrotation
										JOINT LeftHandRing2
										{
											OFFSET 5.62556 0.00000 0.00000
											CHANNELS 3 Zrotation Xrotation Yrotation
											JOINT LeftHandRing3
											{
												OFFSET 3.56744 0.00000 0.00000
												CHANNELS 3 Zrotation Xrotation Yrotation
												End site
												{
													OFFSET 0.00000 0.00000 0.00000
												}
											}
										}
									}
									JOINT LeftHandPinky1
									{
										OFFSET 11.11390 0.00000 -6.03719
										CHANNELS 3 Zrotation Xrotation Yrotation
										JOINT LeftHandPinky2
										{
											OFFSET 4.52789 0.00000 0.00000
											CHANNELS 3 Zrotation Xrotation Yrotation
											JOINT LeftHandPinky3
											{
												OFFSET 2.46976 0.00000 0.00000
												CHANNELS 3 Zrotation Xrotation Yrotation
												End site
												{
													OFFSET 0.00000 0.00000 0.00000
												}
											}
										}
									}
								}
							}
						}
					}
					JOINT pCube4
					{
						OFFSET 0.00000 10.91090 1.10792
						CHANNELS 3 Zrotation Xrotation Yrotation
						End site
						{
							OFFSET 0.00000 0.00000 0.00000
						}
					}
				}
			}
		}
	}
	JOINT RightUpLeg
	{
		OFFSET -9.98441 0.00000 0.00000
		CHANNELS 3 Zrotation Xrotation Yrotation
		JOINT RightLeg
		{
			OFFSET 0.00000 -42.11790 0.00000
			CHANNELS 3 Zrotation Xrotation Yrotation
			JOINT RightFoot
			{
				OFFSET 0.00000 -45.00020 -0.00001
				CHANNELS 3 Zrotation Xrotation Yrotation
				JOINT RightForeFoot
				{
					OFFSET 0.00000 -3.74820 0.00000
					CHANNELS 3 Zrotation Xrotation Yrotation
					JOINT RightToeBase
					{
						OFFSET 0.00000 0.06325 14.43120
						CHANNELS 3 Zrotation Xrotation Yrotation
						End site
						{
							OFFSET 0.00000 0.00000 0.00000
						}
					}
				}
			}
		}
	}
	JOINT LeftUpLeg
	{
		OFFSET 9.98441 0.00000 0.00000
		CHANNELS 3 Zrotation Xrotation Yrotation
		JOINT LeftLeg
		{
			OFFSET 0.00000 -42.11800 0.00000
			CHANNELS 3 Zrotation Xrotation Yrotation
			JOINT LeftFoot
			{
				OFFSET 0.00000 -45.00070 0.00000
				CHANNELS 3 Zrotation Xrotation Yrotation
				JOINT LeftForeFoot
				{
					OFFSET 0.00000 -3.74824 0.00000
					CHANNELS 3 Zrotation Xrotation Yrotation
					JOINT LeftToeBase
					{
						OFFSET 0.00000 0.06325 14.43110
						CHANNELS 3 Zrotation Xrotation Yrotation
						End site
						{
							OFFSET 0.00000 0.00000 0.00000
						}
					}
				}
			}
		}
	}
}
MOTION
Frames: 4
Frame Time: 0.050000
-0.04285684645467689 0.025161681242587372 -0.040896731624899575 0.0038148193635338095 0.00298279219307048 0.01667214791366561 -4.8598041682264 9.28227537130142 -0.4018156819043593 -0.8552203299064609 2.9947006298350605 0.42340886898572916 -1.0445975166880233 0.4274049897323048 -0.5777415911880146 -1.1190182331078093 0.206669301359688 -0.9473197756558863 -0.605605927943631 6.245058151378024 1.084737148651722 -0.4370785309478046 -2.1840368676934054 -2.424589784958809 -0.5206381841368928 -16.83119927706812 -0.0728644505942212 2.8740043577765158 0.2017901416134215 -7.085582497518738 52.7685606110576 4.749170601229105 35.626266205432195 6.727560545785095 17.597704386109534 74.33124951936624 27.71827682135404 -0.19180369628343882 -9.531024233215216 4.549122237088691 -0.149606676099021 -1.585407147661181 0.03202549582423468 0.004236146279276076 -56.19474108891056 0.0456003377244075 -0.01198489116361326 -56.21999935005773 -38.79870592697674 0.04829385698437964 0.016458791341509914 -0.04162919137851207 0.030485402435181646 0.0009558075731164073 0.03594041416426519 0.026828315415559825 0.011106190260794215 -36.68413996729867 -0.0052614036089514375 0.011702368965704809 0.04313325085725868 -0.011042976372890966 0.03372202824014016 0.031162142623820572 0.043598533112152185 -0.027457995121899365 -19.743625758125766 0.003308679788100682 -0.009109443324281805 0.00834111284264975 0.02680354113467274 0.02797177657124636 -0.010806495865000886 -0.024546227152606244 -0.046726032923338955 24.063986143623943 -0.022800049118233873 0.04934579041116751 28.85848495215789 0.02042218630904089 -0.02229709898779514 28.914023187351628 0.0106710931127572 -0.003820247352579451 -2.1457397512704626 0.026038643726545154 7.033444266309947 -50.77225623693722 19.761517755595197 -29.203694478622715 -24.414547859814792 14.990018575124727 -82.22931311877095 -25.701536893771145 -8.01922335910481 6.297441277052857 -0.47387386627560524 0.05616687801457357 -8.121060021717419 -0.0027164943006539885 -0.00968759437710408 44.54387928288238 0.0228301985390891 0.03195978982799623 44.56512681642783 12.494229986053877 -0.03106813663193221 0.01028705725933458 0.025675593217718624 -0.044528042493554396 5.833003362042318e-05 0.025669780976037986 0.03693294775632022 0.03203112090765962 11.132093743886822 0.0006249299216131583 -0.02447632120479715 0.019997369525659357 0.037859553227696616 0.04635147648373834 0.03307500515985961 0.019080578672534133 -0.01574960083759638 4.79873425096571 -0.038868743037821216 -0.03217940741195825 0.045416012412515375 -0.009276706096717918 -0.01792423619972208 -0.033544623015484214 -0.015549343912505575 0.03918281034348366 -5.564450912374553 -0.03993956355745622 -0.03301487191599368 -6.744934948401933 -0.005447807785316616 -0.025974764275178384 -6.738093760112234 -0.02590422566560809 -0.002971091702543415 -0.010225511637160846 -0.03909374645657855 -0.033877029662004905 7.994863936958108 3.4647610964097955 -19.25276990832469 0.0030436052071405517 10.399103533395882 0.05097014717169844 -5.607433737459127 -15.665833353056815 3.1566566550921547 0.00012587128589133077 -0.043243182066840864 -0.004607627487963488 -0.028642949937379453 4.669193031047045 -0.01866944409114338 12.464026573525988 -8.267141724133813 6.882037310279517 -0.03669683630199639 46.37184273819286 0.025983900518023753 -4.362601835988369 -14.717681482324371 -3.8115594254305316 0.003656158931549666 0.029842536471085836 -0.026123126910800473 0.012066621279338649 -10.778160685337578 0.04633270582139114 
0.03289805547607385 -0.033420092413122805 -0.01859990970223059 0.04678920993266694 -0.01799971615844943 -0.029339689934966152 -4.895924967441221 9.262045516316403 -0.4259975639021796 -0.7793718881677989 2.920550114642108 0.4129031801065081 -0.9977113798909166 0.4764059296093468 -0.6446728236236874 -1.1246639121054858 0.15515855736424014 -0.9323757175715702 -0.7106011833705087 6.138466679647677 1.234332521633694 -0.5113861176032086 -2.169814296685673 -2.1806204442681763 -0.5673596738971562 -16.669548561424364 -0.05848955352494627 3.2211750201358282 0.056997519054080834 -7.155673520864027 50.58944655153173 4.230050121288961 33.13094318768243 2.006811753440144 17.135781290689867 71.15414203625144 28.651826355775793 -0.18768349252672203 -8.848818016160495 4.4795817719373465 -0.12465744080709404 -1.5558725202877723 -0.03285125366108703 0.042265661319249054 -56.25263216729316 0.033593691446375064 -0.015073182763727551 -56.19123130847266 -38.73952151836854 -0.011539174962240797 -0.037971932059971104 0.042162677361152846 0.0359415447512956 -0.029530693132552615 -0.027661158063482582 0.012941006349718254 0.029463764176993357 -36.699506840527 -0.02820546503393212 0.0045459580161593734 -0.005920333691200633 0.012085307310839778 -0.01273782742867347 0.01912076478617835 -0.015713490034316865 -0.0071730942539800155 -19.722128108974374 -0.02121394190517758 -0.009620742207459369 -0.04356137359842947 0.001232509275109738 0.005635700134563228 0.01539683862477334 -0.03857823256687434 -0.0385124114993151 24.037228034762844 -0.020366599331704552 0.013499676388944719 28.88822819171682 0.0018987145832034171 -0.0017818123528197912 28.816675164353477 0.024304205223117187 0.011186022298447777 -2.2493770144862655 0.06217787092548045 7.160740883748708 -49.17193317120739 19.742405905401977 -28.852378009904008 -19.730239979856556 13.775961658862421 -80.84653475241566 -26.41677308095923 -8.443890829435057 6.707177350866208 -0.5000732156862492 0.07852550310079474 -8.078993597706718 0.045836387681397424 -0.044021938747756825 44.61535108809855 0.009789744359907872 -0.016827042626741166 44.58663387114711 12.455425006198128 -0.011023907699136888 -0.04795762702601575 0.048092820326694534 0.03376512528153224 0.03305070149430733 -0.004994572269724735 0.009338084274552514 0.034828090624188075 11.153240496274101 -0.0012263378493301013 -0.02122806094668068 -0.030119772685707372 0.015460928921745238 0.019040182986085577 0.03591138324334983 0.0018066194861325385 0.025485211322848353 4.794338809829285 0.008815916309574488 0.007187852429723769 -0.026493956506712307 0.040573227542746934 0.021283033167767557 0.010072896617008099 -0.008604663508779975 -0.04599040940499678 -5.633767309217919 -0.02889995638312588 0.021399590460582794 -6.746026585104616 0.012240827552130039 0.031204678892196018 -6.760892722473412 -0.044391813998292944 0.047734145825780755 0.019755951298793505 0.04034284867283362 -0.025686677101699414 8.032221925523908 3.5217811592244166 -19.18973741732164 -0.009308173314419224 10.419719880194952 0.005535526044739036 -5.669183113334493 -15.660016484246547 3.1763286737669043 -0.01556467605534685 0.03649253032342892 -0.027772278138802273 -0.04883353539852802 4.655725095479861 -0.027941454703224528 12.476380371852967 -8.267791331249978 6.860770583462119 -0.016273245487980037 46.359485899404525 0.04393970485787347 -4.320395359088883 -14.71250757881277 -3.8823335659091573 -0.021042107822019023 -0.03795639199745485 -0.038817293463858614 0.04955870220975936 -10.777646635522037 0.009667134614976813 
0.03290385097118431 0.02812182912177956 -0.03763137784836672 -0.012826966733919294 0.030058792605148318 0.033447201634101566 -4.840186585686721 9.131984881802076 -0.36138513572487996 -0.773558438280554 2.9207973384514503 0.455790586243034 -1.0404782718685015 0.4109995117488413 -0.8142477166397135 -1.1033622616236638 0.15997918336637898 -1.027945868468173 -0.6696981913041548 5.975848291680573 1.137855723774839 -0.4991342038073416 -2.1475837695683127 -2.1919704251192575 -0.5722240923883727 -16.592552239756852 -0.032943309291786314 3.6104059854969224 -0.08701570279419331 -7.206892967029502 48.98953571224373 4.147538718209004 30.34406696597325 -0.9926486580346696 16.950721441818146 68.19522127047438 29.855466098218574 -0.10544086352252308 -8.656092663750929 4.569422090005319 -0.15152819776514748 -1.5926218859682886 -0.004132253133480472 -0.04716932325245855 -56.2367983239441 -0.00479069291291065 0.009693225620191946 -56.26696859405953 -38.79683977616636 0.01712298006575154 0.025644864472884003 -0.022331876474830176 0.021817003193404606 0.01196488758231024 -0.00746587445945003 0.0394380154571365 0.017767198523399697 -36.67494995507457 -0.022822003423272546 0.026980068206022337 -0.03245994497872246 -0.009447232409880595 0.038104296470084675 -0.03781092134556648 0.03840294421182564 -0.033160191567822454 -19.715757046328385 0.02010780933606362 0.015439562149938428 0.019717460734604144 0.03333986380746127 -0.013015171593246487 0.047053956474299594 -0.010175218388344016 -0.026420836667981385 24.076988069713508 0.0034647404811150705 0.01764512728537671 28.902982448357186 -0.01111713711537093 0.04160364613195099 28.896890305110823 -0.019156834131363324 -0.0051973826677232686 -2.3375213654197733 0.0605026946936551 7.209836135436446 -47.63124815587259 20.365434925513885 -28.748908130294446 -14.518545421528156 11.722874918901164 -79.35064556484707 -27.522505984649932 -9.121145045391325 7.422563236630562 -0.45132586905018846 0.0957871696977038 -8.158821334774283 -0.010364141676777605 -0.0179193346988187 44.539169708428616 -0.04694361466242697 -0.047840146569770696 44.583632016091606 12.425481251704017 -0.023802378009212935 -0.042321673574861926 0.030717857680301684 -0.04552424852313857 -0.0003309067355712538 0.017426410014317884 0.04521841455686684 0.004527524872872514 11.09543450943045 -0.023290326632951046 0.005873658633146332 -0.008160404262638667 0.019665290202444775 -0.00410620862290143 0.02375514261516146 0.008022500856260143 -0.01716099371801905 4.795678322691773 -0.010020976168422527 0.0002159331932847764 0.04274276024172025 0.019940247806475315 -0.041437911504664214 -0.02796150735411316 -0.011622603713567674 -0.03674050877322437 -5.569912016179442 0.00013064788027142017 0.022950713840348337 -6.711811044838329 0.03164473919022812 -0.0024172210349707895 -6.681374779790607 -0.005384880172747855 0.022093217933193243 0.017791640024968747 0.026262474719484088 0.014495043862373587 8.047888943186283 3.5164480884264133 -19.1977508286291 -0.041502775777628995 10.37054286835077 0.0028958126785476428 -5.630588610605257 -15.616127511333705 3.150613660781526 0.042929881587337015 0.04676385595324288 -0.024659247355644422 0.02148946550455026 4.735497252811869 0.01368832775423365 12.44312187508352 -8.23505230509327 6.843542394815934 -0.04963792639988268 46.37610054273028 -0.007588176226152462 -4.362075887473027 -14.77240277015427 -3.818930925275949 -0.022815435041403643 0.017113912518761498 0.040034377884237395 0.04023762064262928 -10.763675705496489 -0.035937427065057925 
0.036882860618874795 0.04016931828257363 0.010259790654695471 0.02673531221156585 -0.02449925180850641 -0.008322445011828538 -4.737701183228852 9.06601346370027 -0.4250694052311764 -0.7322140790355519 2.881023459447269 0.45787814603240595 -0.9852739202697041 0.45462015642016745 -0.957319693372491 -0.9956627940132601 0.11787078910191645 -0.9915913178819882 -0.7051771687910828 5.94042616676358 1.0276835402712714 -0.48171843139275805 -2.0666241174621636 -2.2919668360064023 -0.5572487712088733 -16.50937395107913 -0.09812420721289815 3.936587908908327 -0.14891589867077595 -7.219678896816906 47.85832680528893 4.096951009147385 28.86515180869275 -1.9488544539339008 16.8848990638159 66.67368774044856 30.94267276888592 -0.027432271302091388 -8.758282764261255 4.526846066027213 -0.13532839375247094 -1.5702697731820094 -0.04360821469753982 -0.024275338016077074 -56.21130291828821 0.009481818125092151 -0.019540197221853805 -56.26606537904242 -38.77764802370237 -0.03697317560261419 -0.04010392064234592 0.013606770325967391 -0.03940391964688209 -0.013823162254860091 -0.003248869516105732 -4.362113078969683e-05 -0.008769544950922484 -36.6997919550505 -0.04348920918177099 0.007867759821520635 0.006880602030551839 0.028421238412525227 -0.015639706522948223 -0.015658580585178695 -0.028990702875533122 0.02112389525365596 -19.719422667507565 -0.04389301246966914 0.004207392698291064 -0.0338479271799866 -0.018298607073568555 -0.019606897830482743 0.024905080959584002 -0.02749098929398066 0.0057417243724797755 24.09722662870808 -0.00809701676075291 0.017891588982640205 28.82767462594109 -0.04309068793404846 -0.013799427899538275 28.863063706180448 0.043219045783529815 0.00030636443771362267 -2.47873624302881 0.043178483729485476 7.159803296998527 -46.323614050456676 21.291037397402825 -29.47203596940914 -10.309223369501398 9.502348406774143 -78.84708475152976 -28.503591953681223 -9.624330502952077 7.959255227065718 -0.44983923408445464 0.11185928451548699 -8.145858730507253 -0.027055526155024365 -0.014067975628525077 44.5657489346056 0.002664693450791738 -0.008452818468986977 44.59773276571563 12.481134732603742 1.308997846689482e-06 -0.010892912233647238 -0.008158988987248834 0.026130516048421294 0.014737984572420326 0.000837984674279515 0.0009997078233389487 -0.04320812225133353 11.083386221892164 0.003805030787661247 0.0287451347053405 -0.004526606164168747 0.03054912341529884 0.013538775477812199 0.022350385341699763 0.034811513849681154 0.03212966133982333 4.780358470015566 0.013784518658753787 0.03299947127084859 -0.049157195023746464 0.021985706015380406 0.04706047909853074 0.023411876579622435 0.001203570026640429 -0.03814805159456926 -5.565697984361032 -0.030761995762168374 -0.010059062170543717 -6.699626190534489 -0.02108246168091609 0.0033150517855347577 -6.70187606442901 0.03831128656128597 0.03672468263532264 0.03808921256337372 -0.0023071910525467917 0.04194415387349608 8.02221707773359 3.4811411353232007 -19.242050642687577 -0.02110326915447056 10.427933393246196 -0.019894322552817523 -5.604260027067167 -15.701004110547654 3.2300172785327863 -0.040748203163196134 0.014795502991431043 -0.04841595764423813 -0.04514806582656971 4.658598040493168 -0.010631593261836216 12.451048389115773 -8.251570626722188 6.906317620502224 0.037480318213616054 46.38856745345511 0.003984546440604441 -4.344941002515124 -14.743316859689168 -3.8499838869310414 0.023417321000449944 0.018100460445513205 -0.005191828080360557 -0.00792985835387874 -10.769205331215236 -0.04486867536646689 
